<mxfile host="app.diagrams.net" agent="Mozilla/5.0 (Windows NT 10.0; Win64; x64) AppleWebKit/537.36 (KHTML, like Gecko) Chrome/139.0.0.0 Safari/537.36 Edg/139.0.0.0" version="28.1.1">
  <diagram name="Page-1" id="rXzE8Ivk7mm9_P4xR8rt">
    <mxGraphModel dx="872" dy="495" grid="1" gridSize="10" guides="1" tooltips="1" connect="1" arrows="1" fold="1" page="1" pageScale="1" pageWidth="827" pageHeight="1169" math="0" shadow="0">
      <root>
        <mxCell id="0" />
        <mxCell id="1" parent="0" />
        <mxCell id="igzauwJSWDCLafY35PAa-1" value="Consult My Homeworks" style="ellipse;whiteSpace=wrap;html=1;" vertex="1" parent="1">
          <mxGeometry x="310" y="240" width="140" height="70" as="geometry" />
        </mxCell>
        <mxCell id="igzauwJSWDCLafY35PAa-2" value="Consult Homeworks" style="ellipse;whiteSpace=wrap;html=1;" vertex="1" parent="1">
          <mxGeometry x="310" y="140" width="140" height="70" as="geometry" />
        </mxCell>
        <mxCell id="igzauwJSWDCLafY35PAa-3" value="Consult M&lt;span style=&quot;background-color: transparent; color: light-dark(rgb(0, 0, 0), rgb(255, 255, 255));&quot;&gt;y Exams&lt;/span&gt;" style="ellipse;whiteSpace=wrap;html=1;" vertex="1" parent="1">
          <mxGeometry x="450" y="280" width="140" height="70" as="geometry" />
        </mxCell>
        <mxCell id="igzauwJSWDCLafY35PAa-4" value="Consult Exam&lt;span style=&quot;background-color: transparent; color: light-dark(rgb(0, 0, 0), rgb(255, 255, 255));&quot;&gt;s&lt;/span&gt;" style="ellipse;whiteSpace=wrap;html=1;" vertex="1" parent="1">
          <mxGeometry x="450" y="190" width="140" height="70" as="geometry" />
        </mxCell>
        <mxCell id="igzauwJSWDCLafY35PAa-14" style="edgeStyle=orthogonalEdgeStyle;rounded=0;orthogonalLoop=1;jettySize=auto;html=1;exitX=0.5;exitY=0.5;exitDx=0;exitDy=0;exitPerimeter=0;" edge="1" parent="1" source="igzauwJSWDCLafY35PAa-9" target="igzauwJSWDCLafY35PAa-2">
          <mxGeometry relative="1" as="geometry" />
        </mxCell>
        <mxCell id="igzauwJSWDCLafY35PAa-16" style="edgeStyle=orthogonalEdgeStyle;rounded=0;orthogonalLoop=1;jettySize=auto;html=1;exitX=1;exitY=1;exitDx=0;exitDy=0;exitPerimeter=0;" edge="1" parent="1" source="igzauwJSWDCLafY35PAa-9" target="igzauwJSWDCLafY35PAa-4">
          <mxGeometry relative="1" as="geometry">
            <Array as="points">
              <mxPoint x="140" y="200" />
              <mxPoint x="295" y="200" />
              <mxPoint x="295" y="220" />
            </Array>
          </mxGeometry>
        </mxCell>
        <mxCell id="igzauwJSWDCLafY35PAa-9" value="Teacher" style="shape=umlActor;verticalLabelPosition=bottom;verticalAlign=top;html=1;" vertex="1" parent="1">
          <mxGeometry x="110" y="120" width="30" height="60" as="geometry" />
        </mxCell>
        <mxCell id="igzauwJSWDCLafY35PAa-17" style="edgeStyle=orthogonalEdgeStyle;rounded=0;orthogonalLoop=1;jettySize=auto;html=1;exitX=0.5;exitY=0.5;exitDx=0;exitDy=0;exitPerimeter=0;entryX=0;entryY=0.5;entryDx=0;entryDy=0;" edge="1" parent="1" source="igzauwJSWDCLafY35PAa-10" target="igzauwJSWDCLafY35PAa-1">
          <mxGeometry relative="1" as="geometry" />
        </mxCell>
        <mxCell id="igzauwJSWDCLafY35PAa-10" value="Student" style="shape=umlActor;verticalLabelPosition=bottom;verticalAlign=top;html=1;" vertex="1" parent="1">
          <mxGeometry x="110" y="240" width="30" height="60" as="geometry" />
        </mxCell>
        <mxCell id="igzauwJSWDCLafY35PAa-18" style="edgeStyle=orthogonalEdgeStyle;rounded=0;orthogonalLoop=1;jettySize=auto;html=1;exitX=1;exitY=1;exitDx=0;exitDy=0;exitPerimeter=0;entryX=0.057;entryY=0.8;entryDx=0;entryDy=0;entryPerimeter=0;" edge="1" parent="1" source="igzauwJSWDCLafY35PAa-10" target="igzauwJSWDCLafY35PAa-3">
          <mxGeometry relative="1" as="geometry" />
        </mxCell>
      </root>
    </mxGraphModel>
  </diagram>
</mxfile>
